<svg id="visual" viewBox="0 0 900 300" width="900" height="300" xmlns="http://www.w3.org/2000/svg" xmlns:xlink="http://www.w3.org/1999/xlink" version="1.1"><rect x="0" y="0" width="900" height="300" fill="#090908"></rect><path d="M0 98L21.5 98.8C43 99.7 86 101.3 128.8 104.8C171.7 108.3 214.3 113.7 257.2 111.2C300 108.7 343 98.3 385.8 96.2C428.7 94 471.3 100 514.2 98C557 96 600 86 642.8 82.5C685.7 79 728.3 82 771.2 84.5C814 87 857 89 878.5 90L900 91L900 0L878.5 0C857 0 814 0 771.2 0C728.3 0 685.7 0 642.8 0C600 0 557 0 514.2 0C471.3 0 428.7 0 385.8 0C343 0 300 0 257.2 0C214.3 0 171.7 0 128.8 0C86 0 43 0 21.5 0L0 0Z" fill="#d71968"></path><path d="M0 85L21.5 87.7C43 90.3 86 95.7 128.8 95.2C171.7 94.7 214.3 88.3 257.2 85.5C300 82.7 343 83.3 385.8 84.2C428.7 85 471.3 86 514.2 82.8C557 79.7 600 72.3 642.8 68.2C685.7 64 728.3 63 771.2 65.3C814 67.7 857 73.3 878.5 76.2L900 79L900 0L878.5 0C857 0 814 0 771.2 0C728.3 0 685.7 0 642.8 0C600 0 557 0 514.2 0C471.3 0 428.7 0 385.8 0C343 0 300 0 257.2 0C214.3 0 171.7 0 128.8 0C86 0 43 0 21.5 0L0 0Z" fill="#d2168e"></path><path d="M0 68L21.5 65.3C43 62.7 86 57.3 128.8 58.5C171.7 59.7 214.3 67.3 257.2 69.8C300 72.3 343 69.7 385.8 65.3C428.7 61 471.3 55 514.2 54.3C557 53.7 600 58.3 642.8 60.8C685.7 63.3 728.3 63.7 771.2 66.2C814 68.7 857 73.3 878.5 75.7L900 78L900 0L878.5 0C857 0 814 0 771.2 0C728.3 0 685.7 0 642.8 0C600 0 557 0 514.2 0C471.3 0 428.7 0 385.8 0C343 0 300 0 257.2 0C214.3 0 171.7 0 128.8 0C86 0 43 0 21.5 0L0 0Z" fill="#bd30b7"></path><path d="M0 40L21.5 38C43 36 86 32 128.8 31.5C171.7 31 214.3 34 257.2 38.8C300 43.7 343 50.3 385.8 49.7C428.7 49 471.3 41 514.2 40.5C557 40 600 47 642.8 50.2C685.7 53.3 728.3 52.7 771.2 50.3C814 48 857 44 878.5 42L900 40L900 0L878.5 0C857 0 814 0 771.2 0C728.3 0 685.7 0 642.8 0C600 0 557 0 514.2 0C471.3 0 428.7 0 385.8 0C343 0 300 0 257.2 0C214.3 0 171.7 0 128.8 0C86 0 43 0 21.5 0L0 0Z" fill="#904dde"></path><path d="M0 34L21.5 33.3C43 32.7 86 31.3 128.8 29.7C171.7 28 214.3 26 257.2 26C300 26 343 28 385.8 26.3C428.7 24.7 471.3 19.3 514.2 17.5C557 15.7 600 17.3 642.8 18C685.7 18.7 728.3 18.3 771.2 17.2C814 16 857 14 878.5 13L900 12L900 0L878.5 0C857 0 814 0 771.2 0C728.3 0 685.7 0 642.8 0C600 0 557 0 514.2 0C471.3 0 428.7 0 385.8 0C343 0 300 0 257.2 0C214.3 0 171.7 0 128.8 0C86 0 43 0 21.5 0L0 0Z" fill="#0066ff"></path></svg>